<svg xmlns="http://www.w3.org/2000/svg" viewBox="0 0 33.85 18.83"><defs><style>.cls-1{fill:#fea100}</style></defs><g id="Слой_2" data-name="Слой 2"><g id="Layer_1" data-name="Layer 1"><path class="cls-1" d="M33.51 16.4A59.43 59.43 0 0123 14.47l-.95-.36c-2.74-1-5.33-2-7.5-4.52a6.15 6.15 0 01-1.52-4.5A5.41 5.41 0 0118.32 0h.11a4.13 4.13 0 014 4.47 3.55 3.55 0 01-3.75 3.18 2.66 2.66 0 01-1.88-.9 2.69 2.69 0 01-.66-2 2.4 2.4 0 012.46-2.22 1.9 1.9 0 011.34.62 1.85 1.85 0 01.46 1.4 1.65 1.65 0 01-1.72 1.51 1.3 1.3 0 01-1.25-1.41.34.34 0 01.37-.31.32.32 0 01.31.36.65.65 0 00.15.47.62.62 0 00.45.21 1 1 0 001-.88 1.2 1.2 0 00-.3-.89 1.16 1.16 0 00-.85-.4 1.73 1.73 0 00-1.75 1.6 2 2 0 00.49 1.49 2 2 0 001.43.7 2.87 2.87 0 003-2.56A3.46 3.46 0 0018.41.68a4.71 4.71 0 00-4.68 4.46 5.46 5.46 0 001.35 4c2.06 2.39 4.57 3.34 7.23 4.33l.92.35a58.92 58.92 0 0010.3 1.9.33.33 0 01.31.36.34.34 0 01-.33.32z"/><path class="cls-1" d="M4.24 14.64a4.33 4.33 0 01-1-.11 4.16 4.16 0 01-2.63-2 5.4 5.4 0 011.9-7.15 6.14 6.14 0 014.72-.78c3.26.7 5.35 2.51 7.56 4.42l.75.64a.34.34 0 11-.44.52l-.75-.64c-2.15-1.86-4.18-3.61-7.26-4.28A5.52 5.52 0 002.93 6a4.73 4.73 0 00-1.68 6.25 3.47 3.47 0 002.2 1.62 3.42 3.42 0 002.68-.47 2.87 2.87 0 00.8-3.88 2 2 0 00-1.26-.92 2 2 0 00-1.55.28 1.73 1.73 0 00-.57 2.3 1.17 1.17 0 00.76.56 1.11 1.11 0 00.92-.17 1 1 0 00.29-1.31.62.62 0 00-.4-.29.6.6 0 00-.48.09.34.34 0 11-.37-.57 1.28 1.28 0 011.83.41 1.65 1.65 0 01-.49 2.23 1.82 1.82 0 01-1.45.26A1.86 1.86 0 013 11.52a2.41 2.41 0 01.75-3.22 2.72 2.72 0 012.07-.37 2.68 2.68 0 011.69 1.22 3.57 3.57 0 01-1 4.81 4.17 4.17 0 01-2.27.68zm15.6 3.91a1.37 1.37 0 01-1.92-.27 1.33 1.33 0 01.24-1.89c.6-.46 3-1.64 7.35-.29a10.07 10.07 0 00-5.67 2.45zm-6.08-2.62c-2 .32-4.41-.65-5.06.85-.33-.9 1.26-3.86 3.41-4.28.89-.2 4.19-.8 8.62 2.4-4.06-.84-5.03.7-6.97 1.03zM9.69 3.07a1.17 1.17 0 111.17 1.16 1.17 1.17 0 01-1.17-1.16z"/></g></g></svg>